<svg width="1200" height="600" viewBox="0 0 1200 600" fill="none" xmlns="http://www.w3.org/2000/svg">
  <rect width="1200" height="600" fill="#3B82FF"/>
  <rect x="0" y="400" width="1200" height="200" fill="#1E40FF"/>
  <circle cx="300" cy="300" r="80" fill="#FFFFFF" opacity="0.8"/>
  <circle cx="900" cy="300" r="80" fill="#FFFFFF" opacity="0.8"/>
  <svg x="260" y="260" width="80" height="80" viewBox="0 0 24 24" fill="#0F4C81">
    <path d="M12 2C6.48 2 2 6.48 2 12s4.48 10 10 10 10-4.48 10-10S17.52 2 12 2zm-1 17h-2v-6h2v6zm0-8h-2V7h2v4z"/>
  </svg>
  <svg x="860" y="260" width="80" height="80" viewBox="0 0 24 24" fill="#0F4C81">
    <path d="M12 2C6.48 2 2 6.48 2 12s4.48 10 10 10 10-4.48 10-10S17.52 2 12 2zm-1 17h-2v-6h2v6zm0-8h-2V7h2v4z"/>
  </svg>
</svg>
